HIERARCHY
ROOT Hips
{
	OFFSET 0.00000 0.00000 0.00000
	CHANNELS 6 Xposition Yposition Zposition Zrotation Yrotation Xrotation 
	JOINT LHipJoint
	{
		OFFSET 0 0 0
		CHANNELS 3 Zrotation Yrotation Xrotation
		JOINT LeftHip
		{
			OFFSET 1.81638 -1.86202 0.89635
			CHANNELS 3 Zrotation Yrotation Xrotation
			JOINT LeftKnee
			{
				OFFSET 2.63464 -7.23861 0.00000
				CHANNELS 3 Zrotation Yrotation Xrotation
				JOINT LeftAnkle
				{
					OFFSET 2.45871 -6.75336 0.00000
					CHANNELS 3 Zrotation Yrotation Xrotation
					JOINT LeftToe
					{
						OFFSET 0.34235 -0.94059 2.20020
						CHANNELS 3 Zrotation Yrotation Xrotation
						End Site
						{
							OFFSET 0.00000 -0.00000 1.18611
						}
					}
				}
			}
		}
	}
	JOINT RHipJoint
	{
		OFFSET 0 0 0
		CHANNELS 3 Zrotation Yrotation Xrotation
		JOINT RightHip
		{
			OFFSET -1.84405 -1.86203 0.89635
			CHANNELS 3 Zrotation Yrotation Xrotation
			JOINT RightKnee
			{
				OFFSET -2.71067 -7.44751 0.00000
				CHANNELS 3 Zrotation Yrotation Xrotation
				JOINT RightAnkle
				{
					OFFSET -2.47159 -6.79060 0.00000
					CHANNELS 3 Zrotation Yrotation Xrotation
					JOINT RightToe
					{
						OFFSET -0.26223 -0.72048 2.36007
						CHANNELS 3 Zrotation Yrotation Xrotation
						End Site
						{
							OFFSET -0.00000 -0.00000 1.23343
						}
					}
				}
			}
		}
	}
	JOINT lowerback
	{
		OFFSET 0 0 0
		CHANNELS 3 Zrotation Yrotation Xrotation
		JOINT Chest
		{
			OFFSET 0.02089 1.99248 -0.22512
			CHANNELS 3 Zrotation Yrotation Xrotation
			JOINT Chest2
			{
				OFFSET 0.01476 2.01356 -0.03079
				CHANNELS 3 Zrotation Yrotation Xrotation
				JOINT lowerneck
				{
					OFFSET 0 0 0
					CHANNELS 3 Zrotation Yrotation Xrotation
					JOINT Neck
					{
						OFFSET 0.04846 1.65098 0.06663
						CHANNELS 3 Zrotation Yrotation Xrotation
						JOINT Head
						{
							OFFSET -0.06061 1.60634 -0.07565
							CHANNELS 3 Zrotation Yrotation Xrotation
							End Site
							{
								OFFSET -0.02954 1.73562 -0.03642
							}
						}
					}
				}
				JOINT LeftCollar
				{
					OFFSET 0 0 0
					CHANNELS 3 Zrotation Yrotation Xrotation
					JOINT LeftShoulder
					{
						OFFSET 3.45234 1.47051 -0.06993
CHANNELS 3 Zrotation Xrotation Yrotation
						JOINT LeftElbow
						{
OFFSET 0 -5.493130 0.000000
CHANNELS 3 Zrotation Xrotation Yrotation
							JOINT LeftWrist
							{
OFFSET 0 -3.290370 0.000000
CHANNELS 3 Zrotation Xrotation Yrotation
								JOINT lhand
								{
									OFFSET 0 0 0
CHANNELS 3 Zrotation Xrotation Yrotation
									JOINT LFingers
									{
OFFSET 0 -0.729660 0.000000
CHANNELS 3 Zrotation Xrotation Yrotation
										End Site
										{
OFFSET 0 -0.588270 0.000000
										}
									}
								}
								JOINT LThumb
								{
OFFSET 0 0.000000 0.000000
CHANNELS 3 Zrotation Xrotation Yrotation
									End Site
									{
OFFSET 0 -0.597250 0.597250
									}
								}
							}
						}
					}
				}
				JOINT RightCollar
				{
					OFFSET 0 0 0
					CHANNELS 3 Zrotation Yrotation Xrotation
					JOINT RightShoulder
					{
						OFFSET -3.41935 1.44327 0.20453
CHANNELS 3 Zrotation Xrotation Yrotation
						JOINT RightElbow
						{
OFFSET 0 -5.236840 0.000000
CHANNELS 3 Zrotation Xrotation Yrotation
							JOINT RightWrist
							{
OFFSET 0 -3.382510 0.000000
CHANNELS 3 Zrotation Xrotation Yrotation
								JOINT rhand
								{
									OFFSET 0 0 0
CHANNELS 3 Zrotation Xrotation Yrotation
									JOINT RFingers
									{
OFFSET 0 -0.691450 0.000000
CHANNELS 3 Zrotation Xrotation Yrotation
										End Site
										{
OFFSET 0 -0.557470 0.000000
										}
									}
								}
								JOINT RThumb
								{
OFFSET 0 0.000000 0.000000
CHANNELS 3 Zrotation Xrotation Yrotation
									End Site
									{
OFFSET 0 -0.565980 0.565980
									}
								}
							}
						}
					}
				}
			}
		}
	}
}
MOTION
Frames: 8
Frame Time: 0.008333333333333333
3.765322 20.070271 -1.111328 -96.537122 85.621835 -89.170248 0.000000 0.000000 0.000000 -16.303702 2.127055 13.560457 0.000000 0.000000 0.000000 1.698444 0.373416 24.539129 1.786015 -8.405309 -23.952034 0.000000 0.000000 0.000000 -2.455471 21.034606 -51.251641 -28.219360 -18.290154 114.715346 -1.091499 9.017318 -18.779141 -0.158996 2.568300 -7.079084 -0.084857 -0.255561 26.409295 4.859081 0.605165 3.201740 5.325929 0.562599 -11.194622 5.655485 0.367857 -4.128380 -6.943728 0.121802 -10.124481 -3.299911 0.128914 -2.547570 0.000000 0.000000 0.000000 70.791240 -9.947220 5.144938 84.572488 -59.888153 55.301437 14.152794 -7.596565 -3.588513 0.000000 0.000000 0.000000 -7.125000 0.000000 0.000000 -10.168148 33.550823 -2.893190 0.000000 0.000000 0.000000 -58.737660 13.944419 26.237154 -28.466077 -39.536323 -10.421165 -22.213048 5.957194 20.113386 0.000000 0.000000 0.000000 7.125000 0.000000 0.000000 6.327141 51.454579 -1.008056
4.076571 20.315253 -1.093788 -104.008038 85.983367 -96.923691 0.000000 0.000000 0.000000 -16.630989 2.668165 14.297185 0.000000 0.000000 0.000000 2.096812 2.002129 26.854781 1.702868 -8.217368 -23.376504 0.000000 0.000000 0.000000 -3.459117 22.461685 -51.848975 -26.792606 -18.854111 110.233193 -1.050540 8.284194 -18.365393 -0.156975 2.552582 -7.035566 0.225710 -0.346000 26.367857 4.884892 0.584789 3.235015 5.177938 0.541572 -11.131091 5.511982 0.241395 -3.729447 -7.008785 -0.036999 -9.733044 -3.290759 0.053229 -2.498031 0.000000 0.000000 0.000000 70.393358 -11.057438 5.786671 84.130290 -59.869405 54.918925 14.432807 -7.569594 -3.562487 0.000000 0.000000 0.000000 -7.125000 0.000000 0.000000 -9.938752 33.534778 -2.830121 0.000000 0.000000 0.000000 -58.866557 13.940654 23.471422 -26.923868 -38.105584 -9.452409 -23.698776 7.845752 19.958132 0.000000 0.000000 0.000000 7.125000 0.000000 0.000000 4.798540 51.550385 -0.775642
4.381989 20.559704 -1.063440 -117.060664 86.380261 -110.161097 0.000000 0.000000 0.000000 -17.131243 3.026199 15.125517 0.000000 0.000000 0.000000 2.535524 3.175582 29.339378 1.457226 -7.623666 -21.579604 0.000000 0.000000 0.000000 -4.412623 23.575245 -51.872766 -25.061224 -19.363744 104.955064 -0.944446 8.030326 -17.412225 -0.185206 2.769477 -7.637687 0.286463 -0.403676 26.275244 4.777101 0.511665 3.279305 5.039667 0.500823 -11.023021 5.421584 0.076080 -3.291439 -7.043430 -0.247093 -9.497950 -3.283705 -0.047521 -2.512673 0.000000 0.000000 0.000000 69.625349 -12.299247 5.815643 84.113007 -59.868620 54.903941 14.995145 -7.487966 -3.647271 0.000000 0.000000 0.000000 -7.125000 0.000000 0.000000 -9.495164 33.641836 -2.676039 0.000000 0.000000 0.000000 -58.490751 14.005739 20.454717 -25.576310 -36.784489 -8.633859 -24.949271 9.736162 19.597321 0.000000 0.000000 0.000000 7.125000 0.000000 0.000000 3.448647 51.386291 -0.543899
4.679302 20.784832 -1.020437 -136.784741 86.591136 -130.006715 0.000000 0.000000 0.000000 -18.031426 2.175526 13.139130 0.202323 2.180408 6.033935 2.507208 2.949812 29.197377 1.112182 -6.685865 -18.793172 0.000000 0.000000 0.000000 -5.416516 24.386272 -51.491011 -23.119193 -19.750449 99.160832 -0.784490 8.138057 -15.937699 -0.244602 3.176728 -8.771658 0.077491 -0.433013 26.135705 4.588074 0.384736 3.359696 4.982318 0.442324 -10.844710 5.409059 -0.104681 -2.927674 -7.167173 -0.486718 -9.325426 -3.322529 -0.162531 -2.539156 0.000000 0.000000 0.000000 68.549034 -13.523202 5.242489 84.393335 -59.880759 55.146419 15.656863 -7.411724 -3.791556 0.000000 0.000000 0.000000 -7.125000 0.000000 0.000000 -8.977271 33.814294 -2.489166 0.000000 0.000000 0.000000 -57.800356 14.182389 17.460445 -24.470086 -35.654935 -7.979965 -25.907340 11.389139 19.195182 0.000000 0.000000 0.000000 7.125000 0.000000 0.000000 2.389243 51.122568 -0.361440
4.970329 20.988868 -0.966447 -160.284684 86.317170 -153.609793 0.000000 0.000000 0.000000 -18.775325 1.463491 7.578503 1.123204 6.640017 18.683322 1.988056 -0.110491 26.747545 0.749645 -5.520931 -15.402872 0.000000 0.000000 0.000000 -6.418729 24.901430 -50.655491 -21.024253 -19.967786 92.997287 -0.595781 8.463066 -14.097533 -0.348656 3.790131 -10.487364 -0.386366 -0.441799 25.989511 4.358513 0.209330 3.482366 5.042560 0.369312 -10.610227 5.439944 -0.292732 -2.710715 -7.403620 -0.745208 -9.119898 -3.407072 -0.286967 -2.531628 0.000000 0.000000 0.000000 67.218023 -14.632391 4.049180 84.796821 -59.897385 55.495492 16.223079 -7.358832 -3.958711 0.000000 0.000000 0.000000 -7.125000 0.000000 0.000000 -8.537902 34.007632 -2.324225 0.000000 0.000000 0.000000 -56.935818 14.519001 14.774162 -23.622187 -34.761482 -7.490284 -26.533790 12.616250 18.893529 0.000000 0.000000 0.000000 7.125000 0.000000 0.000000 1.692544 50.906155 -0.246540
5.257322 21.171865 -0.902272 -179.184369 85.343358 -172.645513 0.000000 0.000000 0.000000 -19.088733 1.576847 3.176171 2.604164 9.972231 28.935695 1.669666 -3.041001 25.670281 0.457136 -4.324630 -11.993653 0.000000 0.000000 0.000000 -7.289500 25.144988 -49.264074 -18.809131 -19.955086 86.513968 -0.396527 8.874480 -11.969936 -0.498464 4.521261 -12.548750 -1.056671 -0.447200 25.903323 4.137737 -0.009936 3.650516 5.248730 0.283627 -10.349279 5.477070 -0.487248 -2.703148 -7.755739 -1.019878 -8.793034 -3.530271 -0.420654 -2.449114 0.000000 0.000000 0.000000 65.687584 -15.529405 2.183206 85.045447 -59.907038 55.710542 16.528816 -7.302607 -4.103211 0.000000 0.000000 0.000000 -7.125000 0.000000 0.000000 -8.306329 34.168538 -2.227222 0.000000 0.000000 0.000000 -56.036236 15.063210 12.774695 -23.058416 -34.152430 -7.171216 -26.732643 13.141509 18.825350 0.000000 0.000000 0.000000 7.125000 0.000000 0.000000 1.478099 50.866814 -0.213765
5.543635 21.338317 -0.830955 -190.095352 83.881931 -183.776401 0.000000 0.000000 0.000000 -19.163346 1.518856 -0.654377 4.525413 12.761278 38.589833 1.317186 -5.693840 24.421290 0.267144 -3.307107 -9.136574 0.000000 0.000000 0.000000 -7.878847 25.196072 -47.302591 -16.528949 -19.689111 79.794274 -0.208607 9.196493 -9.681410 -0.662178 5.198523 -14.477017 -1.798820 -0.471677 25.941848 3.957520 -0.258590 3.845729 5.555599 0.188373 -10.115533 5.505636 -0.690644 -2.846707 -8.172440 -1.307236 -8.347665 -3.673382 -0.563268 -2.302657 0.000000 0.000000 0.000000 64.080645 -16.182248 -0.271208 84.843361 -59.899159 55.535695 16.525890 -7.173486 -4.184259 0.000000 0.000000 0.000000 -7.125000 0.000000 0.000000 -8.318419 34.251975 -2.213471 0.000000 0.000000 0.000000 -55.176451 15.825529 11.637814 -22.753846 -33.818456 -7.000889 -26.415297 12.852873 19.009933 0.000000 0.000000 0.000000 7.125000 0.000000 0.000000 1.836828 51.011598 -0.272634
5.831144 21.490440 -0.755191 -195.395312 82.201684 -189.408047 0.000000 0.000000 0.000000 -18.916551 1.257153 -4.215879 6.844041 15.162160 48.214382 0.886659 -8.342477 22.686891 0.164117 -2.603381 -7.176718 0.000000 0.000000 0.000000 -8.065601 25.108730 -44.809692 -14.240013 -19.171406 72.925844 -0.053800 9.237824 -7.382558 -0.820250 5.776117 -16.136994 -2.485934 -0.533767 26.131794 3.829659 -0.526577 4.053602 5.901140 0.085166 -9.939108 5.506199 -0.900198 -3.025511 -8.569378 -1.596861 -7.865971 -3.805059 -0.708911 -2.138898 0.000000 0.000000 0.000000 62.497513 -16.602516 -3.138390 84.010644 -59.863587 54.815435 16.223545 -6.907588 -4.141960 0.000000 0.000000 0.000000 -7.125000 0.000000 0.000000 -8.559781 34.196181 -2.290664 0.000000 0.000000 0.000000 -54.367141 16.764287 11.310129 -22.667988 -33.723722 -6.953111 -25.518812 11.814422 19.377764 0.000000 0.000000 0.000000 7.125000 0.000000 0.000000 2.822260 51.251127 -0.435655
